# xmcd CD database file
#
# Track frame offsets:
#	150
#	20288
#	31460
#	45528
#	72235
#	87328
#	108318
#	136505
#	166678
#	188498
#	211758
#
# Disc length: 3058 seconds
#
# Revision: 0
# Processed by: cddbd v1.5PL3 Copyright (c) Steve Scherf et al.
# Submitted via: CDex 1.40Release
#
DISCID=7e0bf00b
DTITLE=Firebird - NO.3
DYEAR=2003
DGENRE=Rock
TTITLE0=Cross The Line
TTITLE1=Tumbling Down
TTITLE2=Stoned Believer
TTITLE3=Station
TTITLE4=Hard Hearted
TTITLE5=End Of The Day
TTITLE6=Long Gone
TTITLE7=Off The Leash
TTITLE8=Dream Ride
TTITLE9=Friend
TTITLE10=Mistaken Again
EXTD=YEAR: 2003 ID3G: 17
EXTT0=
EXTT1=
EXTT2=
EXTT3=
EXTT4=
EXTT5=
EXTT6=
EXTT7=
EXTT8=
EXTT9=
EXTT10=
PLAYORDER=
